<?xml version="1.0" encoding="UTF-8" standalone="no"?>
<!-- This file was generated by dvisvgm 3.2.1 -->

<svg
   version="1.1"
   width="587.14874pt"
   height="146.64648pt"
   viewBox="0 0 587.14876 146.64649"
   id="svg53"
   xmlns:xlink="http://www.w3.org/1999/xlink"
   xmlns="http://www.w3.org/2000/svg"
   xmlns:svg="http://www.w3.org/2000/svg">
  <defs
     id="defs8">
    <path
       id="g0-66"
       d="m 5.3286,-0.48804 c -0.08964,0.01992 -0.12948,0.01992 -0.17928,0.01992 -0.28884,0 -0.4482,-0.1494 -0.4482,-0.40836 v -3.06768 c 0,-0.92628 -0.67728,-1.42428 -1.96212,-1.42428 -0.76692,0 -1.37448,0.21912 -1.73304,0.60756 -0.23904,0.26892 -0.33864,0.56772 -0.35856,1.08564 h 0.83664 c 0.06972,-0.63744 0.4482,-0.92628 1.22508,-0.92628 0.75696,0 1.16532,0.27888 1.16532,0.77688 v 0.21912 c -0.00996,0.35856 -0.18924,0.48804 -0.86652,0.57768 -1.17528,0.1494 -1.35456,0.18924 -1.67328,0.31872 -0.60756,0.25896 -0.91632,0.71712 -0.91632,1.3944 0,0.9462 0.65736,1.5438 1.71312,1.5438 C 2.7888,0.22908 3.31668,0 3.90432,-0.53784 3.96408,0 4.22304,0.22908 4.76088,0.22908 c 0.17928,0 0.28884,-0.01992 0.56772,-0.08964 z M 3.87444,-1.6434 c 0,0.27888 -0.07968,0.4482 -0.32868,0.67728 -0.33864,0.30876 -0.747,0.46812 -1.23504,0.46812 -0.6474,0 -1.02588,-0.30876 -1.02588,-0.83664 0,-0.5478 0.35856,-0.82668 1.25496,-0.95616 0.88644,-0.11952 1.05576,-0.15936 1.33464,-0.28884 z" />
    <path
       id="g0-69"
       d="M 4.9302,-7.26084 H 4.10352 v 2.69916 c -0.3486,-0.52788 -0.90636,-0.80676 -1.60356,-0.80676 -1.35456,0 -2.241,1.08564 -2.241,2.74896 0,1.76292 0.85656,2.84856 2.27088,2.84856 0.71712,0 1.21512,-0.26892 1.66332,-0.91632 V 0 H 4.9302 Z m -2.2908,2.66928 c 0.8964,0 1.46412,0.78684 1.46412,2.0418 0,1.20516 -0.57768,2.00196 -1.45416,2.00196 -0.91632,0 -1.52388,-0.80676 -1.52388,-2.02188 0,-1.21512 0.60756,-2.02188 1.51392,-2.02188 z" />
    <path
       id="g0-70"
       d="m 5.10948,-2.33064 c 0,-0.7968 -0.05976,-1.27488 -0.20916,-1.66332 -0.33864,-0.85656 -1.13544,-1.37448 -2.11152,-1.37448 -1.45416,0 -2.3904,1.10556 -2.3904,2.82864 0,1.72308 0.8964,2.76888 2.37048,2.76888 1.1952,0 2.02188,-0.67728 2.23104,-1.81272 H 4.16328 c -0.22908,0.68724 -0.6972,1.0458 -1.36452,1.0458 -0.52788,0 -0.97608,-0.23904 -1.25496,-0.67728 -0.1992,-0.2988 -0.26892,-0.5976 -0.27888,-1.11552 z M 1.28484,-3.00792 c 0.06972,-0.96612 0.65736,-1.5936 1.494,-1.5936 0.8466,0 1.43424,0.65736 1.43424,1.5936 z" />
    <path
       id="g0-73"
       d="M 0.6972,-7.26084 V 0 h 0.82668 v -2.87844 c 0,-1.06572 0.55776,-1.76292 1.41432,-1.76292 0.27888,0 0.53784,0.07968 0.73704,0.22908 0.23904,0.17928 0.33864,0.42828 0.33864,0.7968 V 0 h 0.82668 v -3.94416 c 0,-0.87648 -0.62748,-1.42428 -1.6434,-1.42428 -0.73704,0 -1.18524,0.22908 -1.67328,0.86652 v -2.75892 z" />
    <path
       id="g0-81"
       d="M 0.53784,2.17128 H 1.37448 V -0.5478 c 0.43824,0.53784 0.92628,0.77688 1.60356,0.77688 1.35456,0 2.23104,-1.08564 2.23104,-2.74896 0,-1.75296 -0.85656,-2.84856 -2.241,-2.84856 -0.70716,0 -1.27488,0.31872 -1.66332,0.93624 V -5.21904 H 0.53784 Z m 2.2908,-6.76284 c 0.91632,0 1.51392,0.80676 1.51392,2.05176 0,1.18524 -0.60756,1.992 -1.51392,1.992 -0.88644,0 -1.45416,-0.7968 -1.45416,-2.02188 0,-1.22508 0.56772,-2.02188 1.45416,-2.02188 z" />
    <path
       id="g0-85"
       d="M 2.52984,-5.21904 H 1.67328 V -6.65328 H 0.8466 v 1.43424 H 0.13944 v 0.67728 H 0.8466 v 3.94416 c 0,0.53784 0.35856,0.82668 1.00596,0.82668 0.21912,0 0.3984,-0.01992 0.67728,-0.06972 v -0.6972 C 2.41032,-0.50796 2.30076,-0.498 2.13144,-0.498 c -0.35856,0 -0.45816,-0.0996 -0.45816,-0.46812 v -3.57564 h 0.85656 z" />
  </defs>
  <g
     id="page1"
     transform="translate(-19.9032,6e-5)" fill="#ffffff">
    <path
       d="m 98.28403,8.50399 c 0,-4.6967 -3.80734,-8.50405 -8.50403,-8.50405 -4.69669,0 -8.50403,3.80735 -8.50403,8.50405 0,4.69668 3.80734,8.50402 8.50403,8.50402 4.69669,0 8.50403,-3.80734 8.50403,-8.50402 z"
       id="path10" />
    <path
       d="m 36.91127,114.80446 c 0,-4.69668 -3.80734,-8.50403 -8.50404,-8.50403 -4.69669,0 -8.50403,3.80735 -8.50403,8.50403 0,4.6967 3.80734,8.50405 8.50403,8.50405 4.6967,0 8.50404,-3.80735 8.50404,-8.50405 z"
       id="path12" />
    <path
       d="m 159.6568,114.80446 c 0,-4.69668 -3.80734,-8.50403 -8.50403,-8.50403 -4.6967,0 -8.50404,3.80735 -8.50404,8.50403 0,4.6967 3.80734,8.50405 8.50404,8.50405 4.69669,0 8.50403,-3.80735 8.50403,-8.50405 z"
       id="path14" />
    <path
       d="m 67.59767,61.65429 c 0,-4.6967 -3.80732,-8.50405 -8.50403,-8.50405 -4.6967,0 -8.50402,3.80735 -8.50402,8.50405 0,4.69668 3.80732,8.50402 8.50402,8.50402 4.69671,0 8.50403,-3.80734 8.50403,-8.50402 z"
       id="path16" />
    <path
       d="m 128.97038,61.65429 c 0,-4.6967 -3.80732,-8.50405 -8.50402,-8.50405 -4.69671,0 -8.50403,3.80735 -8.50403,8.50405 0,4.69668 3.80732,8.50402 8.50403,8.50402 4.6967,0 8.50402,-3.80734 8.50402,-8.50402 z"
       id="path18" />
    <path
       d="m 98.28403,114.80446 c 0,-4.69668 -3.80734,-8.50403 -8.50403,-8.50403 -4.69669,0 -8.50403,3.80735 -8.50403,8.50403 0,4.6967 3.80734,8.50405 8.50403,8.50405 4.69669,0 8.50403,-3.80735 8.50403,-8.50405 z"
       id="path20" />
    <path
       d="m 98.28403,79.37099 c 0,-4.69669 -3.80734,-8.50403 -8.50403,-8.50403 -4.69669,0 -8.50403,3.80734 -8.50403,8.50403 0,4.69669 3.80734,8.50403 8.50403,8.50403 4.69669,0 8.50403,-3.80734 8.50403,-8.50403 z"
       id="path22" />
    <path
       d="m 142.66016,114.81343 -44.37448,-5.3e-4 m -17.01136,5.3e-4 -44.37448,-5.3e-4 M 32.64577,107.44509 54.83344,69.01618 M 63.33875,54.28356 85.52634,15.85451 m 8.50758,-2.6e-4 22.18695,38.42974 m 8.50612,14.73193 22.18686,38.4294"
       stroke="#ffffff"
       fill="none"
       stroke-width="1.75342"
       stroke-miterlimit="10"
       stroke-linejoin="round"
       stroke-linecap="round"
       id="path24" />
    <path
       d="m 63.33898,54.28383 c 10.3112,-17.85956 42.57084,-17.85956 52.88204,0"
       stroke="#ffffff"
       fill="none"
       stroke-width="1.75342"
       stroke-miterlimit="10"
       stroke-linejoin="round"
       stroke-linecap="round"
       id="path26" />
    <path
       d="m 124.72656,69.01618 c 10.3375,17.90458 -5.76626,45.79661 -26.44088,45.79672"
       stroke="#ffffff"
       fill="none"
       stroke-width="1.75342"
       stroke-miterlimit="10"
       stroke-linejoin="round"
       stroke-linecap="round"
       id="path28" />
    <path
       d="M 81.27432,114.8129 C 60.5997,114.81279 44.49594,86.92076 54.83344,69.01618"
       stroke="#ffffff"
       fill="none"
       stroke-width="1.75342"
       stroke-miterlimit="10"
       stroke-linejoin="round"
       stroke-linecap="round"
       id="path30" />
    <path
       d="m 89.78,16.99469 v 53.87047 m 0,17.01166 v 18.42934"
       stroke="#ffffff"
       fill="none"
       stroke-width="1.75342"
       stroke-miterlimit="10"
       stroke-linejoin="round"
       stroke-linecap="round"
       id="path32" />
    <path
       d="M 35.76032,110.55924 82.41387,83.62374 M 97.14613,75.11809 113.1067,65.90331"
       stroke="#ffffff"
       fill="none"
       stroke-width="1.75342"
       stroke-miterlimit="10"
       stroke-linejoin="round"
       stroke-linecap="round"
       id="path34" />
    <path
       d="M 143.79968,110.55924 97.14613,83.62374 M 82.41387,75.11809 66.4533,65.90331"
       stroke="#ffffff"
       fill="none"
       stroke-width="1.75342"
       stroke-miterlimit="10"
       stroke-linejoin="round"
       stroke-linecap="round"
       id="path36" />
    <g
       transform="matrix(14.63236,0,0,14.63236,-89.25299,266.237)"
       id="g50">
      <use
         x="17.77636"
         y="-10.3443"
         xlink:href="#g0-73"
         id="use38" />
      <use
         x="23.314119"
         y="-10.3443"
         xlink:href="#g0-70"
         id="use40" />
      <use
         x="28.851879"
         y="-10.3443"
         xlink:href="#g0-81"
         id="use42" />
      <use
         x="34.36972"
         y="-10.3443"
         xlink:href="#g0-85"
         id="use44" />
      <use
         x="37.118683"
         y="-10.3443"
         xlink:href="#g0-66"
         id="use46" />
      <use
         x="42.656445"
         y="-10.3443"
         xlink:href="#g0-69"
         id="use48" />
    </g>
  </g>
</svg>
