<?xml version="1.0" encoding="UTF-8" standalone="no"?>
<!-- Created with Inkscape (http://www.inkscape.org/) -->

<svg
   width="42.509666mm"
   height="11.084229mm"
   viewBox="0 0 42.509666 11.084229"
   version="1.1"
   id="svg1945"
   xml:space="preserve"
   xmlns:inkscape="http://www.inkscape.org/namespaces/inkscape"
   xmlns:sodipodi="http://sodipodi.sourceforge.net/DTD/sodipodi-0.dtd"
   xmlns="http://www.w3.org/2000/svg"
   xmlns:svg="http://www.w3.org/2000/svg"><sodipodi:namedview
     id="namedview1947"
     pagecolor="#ffffff"
     bordercolor="#000000"
     borderopacity="0.25"
     inkscape:showpageshadow="2"
     inkscape:pageopacity="0.0"
     inkscape:pagecheckerboard="0"
     inkscape:deskcolor="#d1d1d1"
     inkscape:document-units="mm"
     showgrid="false"
     showguides="true"><sodipodi:guide
       position="17.405901,9.2026922"
       orientation="0,-1"
       id="guide2024"
       inkscape:locked="false" /><sodipodi:guide
       position="16.526911,3.6342223"
       orientation="0,-1"
       id="guide2026"
       inkscape:locked="false" /><sodipodi:guide
       position="16.575651,9.2361322"
       orientation="1,0"
       id="guide2028"
       inkscape:locked="false" /></sodipodi:namedview><defs
     id="defs1942"><clipPath
       id="clip0_280_2749"><rect
         width="112"
         height="42"
         fill="#ffffff"
         transform="translate(0.529785)"
         id="rect2002"
         x="0"
         y="0" /></clipPath></defs><g
     inkscape:label="Layer 1"
     inkscape:groupmode="layer"
     id="layer1"
     transform="translate(-90.368448,-143.33622)"><text
       xml:space="preserve"
       style="font-weight:bold;font-size:7.7611px;font-family:'Nimbus Sans';-inkscape-font-specification:'Nimbus Sans Bold';letter-spacing:-0.661458px;fill:#ffffff;stroke-width:0.264583"
       x="106.30517"
       y="150.83243"
       id="text2022"><tspan
         sodipodi:role="line"
         id="tspan2020"
         style="font-style:normal;font-variant:normal;font-weight:bold;font-stretch:normal;font-family:'Nimbus Sans';-inkscape-font-specification:'Nimbus Sans Bold';fill:#ffffff;stroke-width:0.264583"
         x="106.30517"
         y="150.83243">BRIDGE</tspan></text><g
       style="fill:none"
       id="g2017"
       transform="matrix(0.26458333,0,0,0.26458333,90.220659,143.32124)"
       inkscape:export-filename="opbridge_wordmark_dark.svg"
       inkscape:export-xdpi="96"
       inkscape:export-ydpi="96"><g
         clip-path="url(#clip0_280_2749)"
         id="g2000"><path
           fill-rule="evenodd"
           clip-rule="evenodd"
           d="m 17.2374,35.151 c 9.2115,0 16.6788,-7.8562 16.6788,-17.5472 0,-9.69101 -7.4673,-17.5471594 -16.6788,-17.5471594 -9.21151,0 -16.678806,7.8561494 -16.678806,17.5471594 0,9.691 7.467376,17.5472 16.678806,17.5472 z m 0,-10.7983 c 3.5428,0 6.4149,-3.0216 6.4149,-6.7489 0,-3.7273 -2.8721,-6.7489 -6.4149,-6.7489 -3.5429,0 -6.415,3.0216 -6.415,6.7489 0,3.7273 2.8721,6.7489 6.415,6.7489 z"
           fill="#000000"
           id="path1994"
           style="fill:#ffffff" /><path
           d="M 42.8917,0.0624578 42.3177,0.057837 C 40.4702,0.0360531 38.7853,0.311075 37.0354,0.938847 L 36.688,1.06972 c -0.9034,0.33864 -1.7826,0.68074 -2.5844,1.24539 -0.5859,0.50177 -0.7968,0.92111 -0.9319,1.69576 0.0297,0.55582 0.2124,0.86913 0.5217,1.31454 1.0617,1.46827 1.8641,3.19382 2.4551,4.92719 0.0877,0.2719 0.1776,0.5431 0.2697,0.8134 0.2602,0.6768 0.512,1.007 1.1692,1.305 0.6597,0.073 1.6232,-0.3748 1.6232,-0.3748 12.3749,-5.26564 11.8834,15.8309 0.6616,11.3835 -0.8216,-0.5286 -1.4596,-0.7557 -2.4287,-0.568 -0.7186,0.3942 -0.7186,0.3942 -1.295,1.8158 -0.1457,0.3867 -0.2931,0.7686 -0.4581,1.1467 l -1.4451,2.9139 c -0.3844,0.734 -0.7932,1.3996 -1.2984,2.0487 -0.2735,0.3424 -0.3903,0.4465 -0.6692,0.8235 -1.501,1.8667 -3.2021,3.1517 -3.865,3.5609 -0.4382,0.2933 -0.4161,0.3002 -0.7724,0.492 l -0.494,0.3061 c -0.4952,0.2991 -0.4952,0.2991 -0.9264,0.662 -0.4091,0.7208 -0.4814,1.3409 -0.4765,2.1595 l 0.0011,0.0497 0.0078,0.3348 c 0.0033,0.5781 -0.0695,1.1682 0.1799,1.6928 0.0799,0.1682 0.0899,0.2101 0.1695,0.3358 0.0699,0.1102 0.0399,0.1257 0.3644,0.4451 l 10e-5,1e-4 c 0.5909,0.3474 0.591,0.3475 1.7723,0.3507 l 0.5187,-0.008 c 0.3629,-0.0011 0.7258,-0.0023 1.0887,-0.0039 h 0.002 7e-4 c 0.571,-0.0066 1.1419,-0.0132 1.713,-0.0159 0.3737,-0.0011 0.7475,-0.0028 1.1212,-0.0049 l 0.535,-0.0037 0.5205,-0.0034 0.2835,-0.0034 0.1737,-0.0022 0.0245,-3e-4 c 0.5386,-0.0057 0.9835,0.0097 1.4248,-0.3578 0.4149,-0.5271 0.6307,-1.0275 0.7052,-1.7085 l 0.0041,-0.3973 0.0018,-0.1751 c 0.0058,-0.3163 0.0116,-0.6325 0.0147,-0.9489 0.0027,-0.3266 0.0061,-0.6533 0.0103,-0.98 l 5e-4,-0.0264 0.0104,-0.5982 c 0.008,-0.8442 0.067,-1.2053 0.638,-1.8234 0.6644,-0.4404 1.3398,-0.3172 2.0847,-0.175 0.2748,0.066 0.5496,0.1316 0.8254,0.192 3.9513,0.7837 8.3268,-0.3907 11.6435,-2.6887 l 0.002,-0.0013 1e-4,-2e-4 2e-4,-2e-4 0.2467,-0.1732 c 1.2611,-0.8835 2.2776,-1.898 3.2631,-3.0967 l 0.0014,-0.0018 c 0.0946,-0.1155 0.095,-0.1161 0.1891,-0.2303 1.5643,-1.851 2.5907,-3.9572 3.2251,-6.3336 0.0284,-0.1103 0.0565,-0.2173 0.0845,-0.3244 0.2566,-0.9726 0.412,-1.913 0.4505,-2.9199 C 59.1512,14.0458 58.1247,9.43176 54.6925,5.64169 51.4993,2.22707 47.4801,0.139362 42.8917,0.0624578 Z"
           fill="#fe7901"
           id="path1996" /></g></g></g></svg>
