<svg width="113" height="42" viewBox="0 0 113 42" fill="none" xmlns="http://www.w3.org/2000/svg">
<g clip-path="url(#clip0_280_2749)">
<path fill-rule="evenodd" clip-rule="evenodd" d="M17.2374 35.151C26.4489 35.151 33.9162 27.2948 33.9162 17.6038C33.9162 7.91279 26.4489 0.0566406 17.2374 0.0566406C8.02589 0.0566406 0.558594 7.91279 0.558594 17.6038C0.558594 27.2948 8.02597 35.151 17.2374 35.151ZM17.2374 24.3527C20.7802 24.3527 23.6523 21.3311 23.6523 17.6038C23.6523 13.8765 20.7802 10.8549 17.2374 10.8549C13.6945 10.8549 10.8224 13.8765 10.8224 17.6038C10.8224 21.3311 13.6945 24.3527 17.2374 24.3527Z" fill="black"/>
<path d="M42.8917 0.0624578L42.3177 0.057837C40.4702 0.0360531 38.7853 0.311075 37.0354 0.938847L36.688 1.06972C35.7846 1.40836 34.9054 1.75046 34.1036 2.31511C33.5177 2.81688 33.3068 3.23622 33.1717 4.01087C33.2014 4.56669 33.3841 4.88 33.6934 5.32541C34.7551 6.79368 35.5575 8.51923 36.1485 10.2526C36.2362 10.5245 36.3261 10.7957 36.4182 11.066C36.6784 11.7428 36.9302 12.073 37.5874 12.371C38.2471 12.444 39.2106 11.9962 39.2106 11.9962C51.5855 6.73056 51.094 27.8271 39.8722 23.3797C39.0506 22.8511 38.4126 22.624 37.4435 22.8117C36.7249 23.2059 36.7249 23.2059 36.1485 24.6275C36.0028 25.0142 35.8554 25.3961 35.6904 25.7742L34.2453 28.6881C33.8609 29.4221 33.4521 30.0877 32.9469 30.7368C32.6734 31.0792 32.5566 31.1833 32.2777 31.5603C30.7767 33.427 29.0756 34.712 28.4127 35.1212C27.9745 35.4145 27.9966 35.4214 27.6403 35.6132L27.1463 35.9193C26.6511 36.2184 26.6511 36.2184 26.2199 36.5813C25.8108 37.3021 25.7385 37.9222 25.7434 38.7408L25.7445 38.7905L25.7523 39.1253C25.7556 39.7034 25.6828 40.2935 25.9322 40.8181C26.0121 40.9863 26.0221 41.0282 26.1017 41.1539C26.1716 41.2641 26.1416 41.2796 26.4661 41.599L26.4662 41.5991C27.0571 41.9465 27.0572 41.9466 28.2385 41.9498L28.7572 41.9418C29.1201 41.9407 29.483 41.9395 29.8459 41.9379H29.8479L29.8486 41.9379C30.4196 41.9313 30.9905 41.9247 31.5616 41.922C31.9353 41.9209 32.3091 41.9192 32.6828 41.9171L33.2178 41.9134L33.7383 41.91L34.0218 41.9066L34.1955 41.9044L34.22 41.9041C34.7586 41.8984 35.2035 41.9138 35.6448 41.5463C36.0597 41.0192 36.2755 40.5188 36.35 39.8378L36.3541 39.4405L36.3559 39.2654C36.3617 38.9491 36.3675 38.6329 36.3706 38.3165C36.3733 37.9899 36.3767 37.6632 36.3809 37.3365L36.3814 37.3101L36.3918 36.7119C36.3998 35.8677 36.4588 35.5066 37.0298 34.8885C37.6942 34.4481 38.3696 34.5713 39.1145 34.7135C39.3893 34.7795 39.6641 34.8451 39.9399 34.9055C43.8912 35.6892 48.2667 34.5148 51.5834 32.2168L51.5854 32.2155L51.5855 32.2153L51.5857 32.2151L51.8324 32.0419C53.0935 31.1584 54.11 30.1439 55.0955 28.9452L55.0969 28.9434C55.1915 28.8279 55.1919 28.8273 55.286 28.7131C56.8503 26.8621 57.8767 24.7559 58.5111 22.3795C58.5395 22.2692 58.5676 22.1622 58.5956 22.0551C58.8522 21.0825 59.0076 20.1421 59.0461 19.1352C59.1512 14.0458 58.1247 9.43176 54.6925 5.64169C51.4993 2.22707 47.4801 0.139362 42.8917 0.0624578Z" fill="#FE7901"/>
<path d="M63.208 7.17098V28.2168H67.7309V15.8051L74.8883 28.2168H78.9682V7.1709H74.3288V19.8525L66.9616 7.1709L63.208 7.17098ZM97.5729 7.17098V11.2918H102.585V28.2168H107.481V11.2918H112.517V7.1709L97.5729 7.17098ZM81.8129 7.17098V28.2168H95.3344V23.9978H86.6388V19.6071H92.0937V15.5353H86.6388V11.2918H95.2646V7.1709L81.8129 7.17098Z" fill="black"/>
</g>
<defs>
<clipPath id="clip0_280_2749">
<rect width="112" height="42" fill="white" transform="translate(0.529785)"/>
</clipPath>
</defs>
</svg>
